<?xml version="1.0" standalone="no"?>
<!DOCTYPE svg PUBLIC "-//W3C//DTD SVG 20010904//EN" "http://www.w3.org/TR/2001/REC-SVG-20010904/DTD/svg10.dtd">
<!-- Created using Krita: https://krita.org -->
<svg xmlns="http://www.w3.org/2000/svg" 
    xmlns:xlink="http://www.w3.org/1999/xlink"
    xmlns:krita="http://krita.org/namespaces/svg/krita"
    xmlns:sodipodi="http://sodipodi.sourceforge.net/DTD/sodipodi-0.dtd"
    width="17.28pt"
    height="17.28pt"
    viewBox="0 0 17.28 17.28">
<defs/>
<path id="shape0" transform="matrix(0.018 0 0 0.018 2.88 1.44000000000005)" fill="#1f1f1f" stroke-opacity="0" stroke="#000000" stroke-width="0" stroke-linecap="square" stroke-linejoin="bevel" d="M320 694C401.333 619.333 461.667 551.5 501 490.5C540.333 429.5 560 375.333 560 328C560 255.333 536.833 195.833 490.5 149.5C444.167 103.167 387.333 80 320 80C252.667 80 195.833 103.167 149.5 149.5C103.167 195.833 80 255.333 80 328C80 375.333 99.6667 429.5 139 490.5C178.333 551.5 238.667 619.333 320 694ZM320 800C212.667 708.667 132.5 623.833 79.5 545.5C26.5 467.167 0 394.667 0 328C0 228 32.1667 148.333 96.5 89C160.833 29.6667 235.333 0 320 0C404.667 0 479.167 29.6667 543.5 89C607.833 148.333 640 228 640 328C640 394.667 613.5 467.167 560.5 545.5C507.5 623.833 427.333 708.667 320 800ZM320 320" sodipodi:nodetypes="ccccccccccccccccccc"/><path id="shape1" transform="matrix(0.00848269309800133 0 0 0.00848269309800133 5.96249956068015 3.4087497581737)" fill="#1f1f1f" stroke-opacity="0" stroke="#000000" stroke-width="0" stroke-linecap="square" stroke-linejoin="bevel" d="M80 840C58 840 39.1667 832.167 23.5 816.5C7.83333 800.833 0 782 0 760L0 360C0 338 7.83333 319.167 23.5 303.5C39.1667 287.833 58 280 80 280L120 280L120 200C120 144.667 139.5 97.5 178.5 58.5C217.5 19.5 264.667 0 320 0C375.333 0 422.5 19.5 461.5 58.5C500.5 97.5 520 144.667 520 200L520 280L560 280C582 280 600.833 287.833 616.5 303.5C632.167 319.167 640 338 640 360L640 760C640 782 632.167 800.833 616.5 816.5C600.833 832.167 582 840 560 840ZM80 760L560 760L560 360L80 360ZM320 640C342 640 360.833 632.167 376.5 616.5C392.167 600.833 400 582 400 560C400 538 392.167 519.167 376.5 503.5C360.833 487.833 342 480 320 480C298 480 279.167 487.833 263.5 503.5C247.833 519.167 240 538 240 560C240 582 247.833 600.833 263.5 616.5C279.167 632.167 298 640 320 640ZM200 280L440 280L440 200C440 166.667 428.333 138.333 405 115C381.667 91.6667 353.333 80 320 80C286.667 80 258.333 91.6667 235 115C211.667 138.333 200 166.667 200 200ZM80 760L80 360Z" sodipodi:nodetypes="ccccccccccccccccccccccccccccccccccccccccccccc"/>
</svg>
