<?xml version="1.0" standalone="no"?>
<!DOCTYPE svg PUBLIC "-//W3C//DTD SVG 20010904//EN" "http://www.w3.org/TR/2001/REC-SVG-20010904/DTD/svg10.dtd">
<!-- Created using Krita: https://krita.org -->
<svg xmlns="http://www.w3.org/2000/svg" 
    xmlns:xlink="http://www.w3.org/1999/xlink"
    xmlns:krita="http://krita.org/namespaces/svg/krita"
    xmlns:sodipodi="http://sodipodi.sourceforge.net/DTD/sodipodi-0.dtd"
    width="17.28pt"
    height="17.28pt"
    viewBox="0 0 17.28 17.28">
<defs/>
<path id="shape0" transform="matrix(0.018 0 0 0.018 2.88 1.44000000000005)" fill="#1f1f1f" stroke-opacity="0" stroke="#000000" stroke-width="0" stroke-linecap="square" stroke-linejoin="bevel" d="M320 694C401.333 619.333 461.667 551.5 501 490.5C540.333 429.5 560 375.333 560 328C560 255.333 536.833 195.833 490.5 149.5C444.167 103.167 387.333 80 320 80C252.667 80 195.833 103.167 149.5 149.5C103.167 195.833 80 255.333 80 328C80 375.333 99.6667 429.5 139 490.5C178.333 551.5 238.667 619.333 320 694ZM320 800C212.667 708.667 132.5 623.833 79.5 545.5C26.5 467.167 0 394.667 0 328C0 228 32.1667 148.333 96.5 89C160.833 29.6667 235.333 0 320 0C404.667 0 479.167 29.6667 543.5 89C607.833 148.333 640 228 640 328C640 394.667 613.5 467.167 560.5 545.5C507.5 623.833 427.333 708.667 320 800ZM320 320" sodipodi:nodetypes="ccccccccccccccccccc"/><path id="shape1" transform="translate(5.78249958801902, 5.80499958641598)" fill="none" stroke="#000000" stroke-width="1.44" stroke-linecap="square" stroke-linejoin="bevel" d="M0 2.88L2.115 0.72L3.5325 2.0925L5.715 0" sodipodi:nodetypes="cccc"/>
</svg>
